<?xml version="1.0" standalone="no"?>
<svg xmlns="http://www.w3.org/2000/svg" viewBox="0 0 139 67" width="139" height="67"><g fill="#a6ec84" color="#a6ec84" transform="translate(54.322 0) scale(0.6595745) "><svg width="46.0" height="47.0" x="0.0" y="0.0" viewBox="0 0 46 47"><path fill="currentColor" fill-rule="evenodd" d="M29.368 34c-.357-2.817-1.256-5.625-2.664-8.333C31.446 17.977 37.79 10.85 40.967 7.88c.424-.391.43-1.048.026-1.452a1.09 1.09 0 0 0-1.5-.03c-3.121 2.922-9.208 9.727-13.978 17.191a32.399 32.399 0 0 0-3.317-4.38A33.66 33.66 0 0 0 21 17.944C25.495 9.464 34.858 2.943 43.85 2c.536 7.76.436 28.055-14.482 32M45.735.954c1.633 19.467-4.343 32.71-16.014 35.665.025.822.004 1.645-.062 2.464-.05.567-.53.977-1.122.948-.575-.047-1-.553-.954-1.12.333-4.033-.589-8.19-2.623-12.13a1.005 1.005 0 0 1-.247-.483 30.13 30.13 0 0 0-3.759-5.38 31.99 31.99 0 0 0-1.392-1.493 1.041 1.041 0 0 1-.404-.408c-4.85-4.747-11.072-7.914-16.908-8.55-.828 11.951 1.479 22.016 6.387 27.727 2.99 3.476 6.928 5.405 11.703 5.73a1.04 1.04 0 0 1 .966 1.107 1.026 1.026 0 0 1-1.03.969c-.023 0-.044 0-.072-.004-5.349-.37-9.77-2.54-13.139-6.452C1.572 33.16-.84 22.404.261 9.257c.044-.56.5-1.026 1.095-.948 6.283.368 13.073 3.535 18.444 8.463C24.812 7.532 35.028.567 44.637.004c.553-.053 1.051.392 1.098.95zM5.766 14.286C11 19.306 23.355 34.181 25.975 45.738a1.046 1.046 0 0 1-.789 1.24 1.224 1.224 0 0 1-.23.022c-.475 0-.906-.327-1.013-.807C21.427 35.089 9.413 20.652 4.32 15.776a1.026 1.026 0 0 1-.027-1.46c.4-.41 1.064-.421 1.474-.03z"></path></svg></g><line x1="55.232000000000006" y1="37" x2="83.75200000000001" y2="37" stroke="#394a3e" stroke-linecap="round"></line><path fill="#394a3e" fill-rule="nonzero" d="M4.61 19.37Q3.24 19.37 2.20 18.64Q1.15 17.90 0.58 16.55Q0 15.19 0 13.42L0 13.42Q0 10.42 1.52 7.27Q3.05 4.13 5.38 2.08Q7.70 0.02 9.94 0.02L9.94 0.02Q10.85 0.02 11.38 0.31L11.38 0.31L11.11 0.31Q9.12 0.31 7.01 2.44Q4.90 4.56 3.50 7.73Q2.11 10.90 2.11 13.75L2.11 13.75Q2.11 15.84 2.92 17.20Q3.72 18.55 5.33 18.55L5.33 18.55Q7.46 18.55 9.23 16.45Q10.99 14.35 12.01 11.21Q13.03 8.06 13.03 5.16L13.03 5.16Q13.03 3.94 12.77 2.89Q12.50 1.85 11.95 1.85L11.95 1.85Q11.40 1.85 10.72 2.72Q10.03 3.60 9.47 4.82Q8.90 6.05 8.71 6.98L8.71 6.98Q8.14 6.84 7.85 6.53Q7.56 6.22 7.56 5.81L7.56 5.81Q7.56 4.99 8.32 3.89Q9.07 2.78 10.10 1.99Q11.14 1.20 11.90 1.20L11.90 1.20Q13.01 1.20 13.48 2.62Q13.94 4.03 13.94 5.83L13.94 5.83Q13.94 9.94 12.48 13.02Q11.02 16.10 8.83 17.74Q6.65 19.37 4.61 19.37L4.61 19.37ZM16.44 18Q15.46 18 14.99 17.33Q14.52 16.66 14.52 15.53L14.52 15.53Q14.52 13.37 16.01 9.66Q17.50 5.95 19.33 2.98Q21.17 0 21.98 0L21.98 0Q22.32 0 22.55 0.59Q22.78 1.18 22.78 1.78L22.78 1.78Q22.78 2.88 21.88 5.03Q20.98 7.18 19.51 9.38Q18.05 11.59 16.39 12.96L16.39 12.96Q16.08 14.35 16.08 15.38L16.08 15.38Q16.08 17.23 17.14 17.23L17.14 17.23Q18.02 17.23 18.95 16.10Q19.87 14.98 20.59 13.39L20.59 13.39L20.95 13.58Q18.89 18 16.44 18L16.44 18ZM16.61 12.14Q17.93 10.82 19.19 8.82Q20.45 6.82 21.24 4.98Q22.03 3.14 22.03 2.33L22.03 2.33Q22.03 1.94 21.86 1.94L21.86 1.94Q21.53 1.94 20.48 3.59Q19.44 5.23 18.34 7.61Q17.23 9.98 16.61 12.14L16.61 12.14ZM22.15 18.38Q20.02 18.38 20.02 16.01L20.02 16.01Q20.02 14.98 20.39 13.45Q20.76 11.93 21.41 10.22L21.41 10.22Q20.83 10.13 20.54 10.03L20.54 10.03L20.54 9.60Q21.41 9.70 21.60 9.70L21.60 9.70Q22.66 6.96 23.87 4.96Q25.08 2.95 25.78 2.95L25.78 2.95Q25.97 2.95 26.12 3.10Q26.28 3.24 26.28 3.48L26.28 3.48Q26.28 3.79 25.98 4.39Q25.68 4.99 24.96 6.24L24.96 6.24Q24.84 6.48 24.22 7.57Q23.59 8.66 23.09 9.77L23.09 9.77L23.98 9.77Q25.97 9.77 27.41 9.62L27.41 9.62L27.41 10.06Q24.79 10.34 23.18 10.34L23.18 10.34L22.82 10.34Q21.50 13.37 21.50 15.58L21.50 15.58Q21.50 16.61 21.82 17.05Q22.13 17.50 22.85 17.50L22.85 17.50Q24.07 17.50 25.27 16.40Q26.47 15.31 27.41 13.39L27.41 13.39L27.72 13.63Q26.83 15.72 25.32 17.05Q23.81 18.38 22.15 18.38L22.15 18.38ZM31.10 17.90Q30.29 17.90 29.82 17.47Q29.35 17.04 29.35 16.34L29.35 16.34Q29.35 15.53 30.05 13.99L30.05 13.99Q30.36 13.20 30.52 12.73Q30.67 12.26 30.67 11.86L30.67 11.86Q30.67 11.26 30.40 10.91Q30.12 10.56 29.78 10.33Q29.45 10.10 29.33 10.03L29.33 10.03Q28.80 11.38 28.20 12.66Q27.60 13.94 27.19 14.64L27.19 14.64L26.98 14.23Q28.13 12 28.92 9.67L28.92 9.67Q28.68 9.43 28.68 9.10L28.68 9.10Q28.68 8.66 28.86 8.28Q29.04 7.90 29.29 7.68Q29.54 7.46 29.69 7.46L29.69 7.46Q30.02 7.46 30.02 8.04L30.02 8.04Q30.02 8.14 29.90 8.47Q29.78 8.81 29.76 8.93L29.76 8.93Q29.76 9.17 29.96 9.37Q30.17 9.58 30.62 9.89L30.62 9.89Q31.37 10.42 31.79 10.93Q32.21 11.45 32.21 12.26L32.21 12.26Q32.21 12.79 32.04 13.31Q31.87 13.82 31.54 14.66L31.54 14.66Q31.01 15.82 31.01 16.32L31.01 16.32Q31.01 17.04 31.73 17.04L31.73 17.04Q32.45 17.04 33.28 16.46Q34.10 15.89 34.80 15.04Q35.50 14.18 35.81 13.46L35.81 13.46L36.12 13.70Q35.38 15.36 33.96 16.63Q32.54 17.90 31.10 17.90L31.10 17.90ZM37.90 18.34Q36.48 18.34 35.72 17.56Q34.97 16.78 34.97 15.55L34.97 15.55Q34.97 14.14 35.90 12.50Q36.84 10.87 38.27 9.76Q39.70 8.64 41.06 8.64L41.06 8.64Q42.55 8.64 42.55 10.10L42.55 10.10Q42.55 11.28 41.66 12.30Q40.78 13.32 39.38 13.97Q37.99 14.62 36.60 14.76L36.60 14.76Q36.50 15.17 36.50 15.62L36.50 15.62Q36.50 16.49 36.94 17.06Q37.37 17.64 38.40 17.64L38.40 17.64Q39.86 17.64 41.35 16.42Q42.84 15.19 43.78 13.39L43.78 13.39L44.06 13.61Q43.10 15.74 41.40 17.04Q39.70 18.34 37.90 18.34L37.90 18.34ZM36.72 14.30Q37.73 13.94 38.83 13.30Q39.94 12.65 40.72 11.77Q41.50 10.90 41.50 9.94L41.50 9.94Q41.50 9.65 41.39 9.52Q41.28 9.38 40.99 9.38L40.99 9.38Q40.25 9.38 39.37 10.13Q38.50 10.87 37.76 12.02Q37.03 13.18 36.72 14.30L36.72 14.30ZM54.14 6.91Q53.71 6.91 53.44 6.71Q53.16 6.50 53.16 6.12L53.16 6.12Q53.16 5.64 53.74 5.26Q54.31 4.87 54.91 4.87L54.91 4.87Q55.70 4.87 55.70 5.62L55.70 5.62Q55.70 6.07 55.21 6.49Q54.72 6.91 54.14 6.91L54.14 6.91ZM51.26 17.90Q50.38 17.90 49.90 17.34Q49.42 16.78 49.42 15.89L49.42 15.89Q49.42 14.95 49.96 13.30Q50.50 11.64 51.30 10.39Q52.10 9.14 52.87 9.14L52.87 9.14Q53.09 9.14 53.24 9.29Q53.40 9.43 53.40 9.67L53.40 9.67Q53.40 10.01 52.63 11.28L52.63 11.28Q51.84 12.60 51.37 13.64Q50.90 14.69 50.90 15.62L50.90 15.62Q50.90 16.46 51.18 16.76Q51.46 17.06 52.08 17.06L52.08 17.06Q53.95 17.06 55.78 13.39L55.78 13.39L55.99 13.63Q55.32 15.65 54.01 16.78Q52.70 17.90 51.26 17.90L51.26 17.90ZM57.31 18Q56.33 18 55.86 17.33Q55.39 16.66 55.39 15.53L55.39 15.53Q55.39 13.37 56.88 9.66Q58.37 5.95 60.20 2.98Q62.04 0 62.86 0L62.86 0Q63.19 0 63.42 0.59Q63.65 1.18 63.65 1.78L63.65 1.78Q63.65 2.88 62.75 5.03Q61.85 7.18 60.38 9.38Q58.92 11.59 57.26 12.96L57.26 12.96Q56.95 14.35 56.95 15.38L56.95 15.38Q56.95 17.23 58.01 17.23L58.01 17.23Q58.90 17.23 59.82 16.10Q60.74 14.98 61.46 13.39L61.46 13.39L61.82 13.58Q59.76 18 57.31 18L57.31 18ZM57.48 12.14Q58.80 10.82 60.06 8.82Q61.32 6.82 62.11 4.98Q62.90 3.14 62.90 2.33L62.90 2.33Q62.90 1.94 62.74 1.94L62.74 1.94Q62.40 1.94 61.36 3.59Q60.31 5.23 59.21 7.61Q58.10 9.98 57.48 12.14L57.48 12.14ZM68.14 24Q67.56 24 67.15 23.65Q66.74 23.30 66.74 22.61L66.74 22.61Q66.74 21.72 67.44 20.96Q68.14 20.21 69.04 19.67Q69.94 19.13 71.42 18.38L71.42 18.38Q72.10 16.66 72.65 14.42L72.65 14.42Q70.51 17.50 68.74 17.50L68.74 17.50Q67.90 17.50 67.42 16.86Q66.94 16.22 66.94 15.17L66.94 15.17Q66.94 13.58 67.96 12.14Q68.98 10.70 70.48 9.83Q71.98 8.95 73.30 8.95L73.30 8.95Q73.94 8.95 74.27 9.17Q74.59 9.38 74.59 9.72L74.59 9.72Q74.59 9.91 74.48 10.04Q74.38 10.18 74.30 10.20L74.30 10.20Q74.06 9.84 73.34 9.84L73.34 9.84Q72.14 9.84 71.03 10.75Q69.91 11.66 69.22 12.96Q68.52 14.26 68.52 15.29L68.52 15.29Q68.52 15.86 68.75 16.16Q68.98 16.46 69.36 16.46L69.36 16.46Q70.01 16.46 70.98 15.58Q71.95 14.69 72.91 13.30L72.91 13.30L73.20 12.02Q73.30 11.57 73.60 11.18Q73.90 10.80 74.42 10.80L74.42 10.80Q74.64 10.80 74.93 10.87L74.93 10.87Q74.93 11.52 74.40 13.48Q73.87 15.43 73.08 17.45L73.08 17.45Q74.33 16.85 75.40 15.78Q76.46 14.71 76.99 13.39L76.99 13.39L77.30 13.63Q76.80 15.10 75.49 16.30Q74.18 17.50 72.82 18.14L72.82 18.14Q71.69 20.88 70.54 22.44Q69.38 24 68.14 24L68.14 24ZM68.06 23.23Q68.62 23.23 69.44 22.19Q70.27 21.14 71.16 19.03L71.16 19.03Q69.41 19.92 68.45 20.69Q67.49 21.46 67.49 22.39L67.49 22.39Q67.49 22.78 67.64 23.00Q67.80 23.23 68.06 23.23L68.06 23.23ZM81.17 6.91Q80.74 6.91 80.46 6.71Q80.18 6.50 80.18 6.12L80.18 6.12Q80.18 5.64 80.76 5.26Q81.34 4.87 81.94 4.87L81.94 4.87Q82.73 4.87 82.73 5.62L82.73 5.62Q82.73 6.07 82.24 6.49Q81.74 6.91 81.17 6.91L81.17 6.91ZM78.29 17.90Q77.40 17.90 76.92 17.34Q76.44 16.78 76.44 15.89L76.44 15.89Q76.44 14.95 76.98 13.30Q77.52 11.64 78.32 10.39Q79.13 9.14 79.90 9.14L79.90 9.14Q80.11 9.14 80.27 9.29Q80.42 9.43 80.42 9.67L80.42 9.67Q80.42 10.01 79.66 11.28L79.66 11.28Q78.86 12.60 78.40 13.64Q77.93 14.69 77.93 15.62L77.93 15.62Q77.93 16.46 78.20 16.76Q78.48 17.06 79.10 17.06L79.10 17.06Q80.98 17.06 82.80 13.39L82.80 13.39L83.02 13.63Q82.34 15.65 81.04 16.78Q79.73 17.90 78.29 17.90L78.29 17.90ZM83.50 18.41Q82.70 18.41 82.21 17.89Q81.72 17.38 81.72 16.42L81.72 16.42Q81.72 15 82.74 13.25Q83.76 11.50 85.32 10.27Q86.88 9.05 88.37 9.05L88.37 9.05Q89.30 9.05 89.93 9.55Q90.55 10.06 90.55 10.85L90.55 10.85Q90.55 11.40 90.24 11.64Q89.93 11.88 89.38 11.88L89.38 11.88Q89.50 11.45 89.50 11.04L89.50 11.04Q89.50 10.44 89.21 10.07Q88.92 9.70 88.32 9.70L88.32 9.70Q87.26 9.70 86.10 10.87Q84.94 12.05 84.16 13.68Q83.38 15.31 83.38 16.49L83.38 16.49Q83.38 17.42 84.02 17.42L84.02 17.42Q84.98 17.42 86.28 15.90Q87.58 14.38 89.06 12.19L89.06 12.19Q89.38 12.24 89.70 12.40Q90.02 12.55 90.02 12.79L90.02 12.79Q90.02 12.98 89.80 13.40Q89.57 13.82 89.52 13.90L89.52 13.90Q89.11 14.59 88.87 15.13Q88.63 15.67 88.63 16.13L88.63 16.13Q88.63 16.54 88.84 16.86Q89.04 17.18 89.45 17.18L89.45 17.18Q90.14 17.18 91.20 16.19Q92.26 15.19 93.29 13.39L93.29 13.39L93.53 13.63Q93.02 14.90 92.23 15.90Q91.44 16.90 90.53 17.45Q89.62 18 88.78 18L88.78 18Q87.94 18 87.49 17.51Q87.05 17.02 87.05 16.32L87.05 16.32Q87.05 16.01 87.12 15.62L87.12 15.62Q86.04 17.06 85.19 17.74Q84.34 18.41 83.50 18.41L83.50 18.41ZM96.96 17.90Q96.14 17.90 95.68 17.47Q95.21 17.04 95.21 16.34L95.21 16.34Q95.21 15.53 95.90 13.99L95.90 13.99Q96.22 13.20 96.37 12.73Q96.53 12.26 96.53 11.86L96.53 11.86Q96.53 11.26 96.25 10.91Q95.98 10.56 95.64 10.33Q95.30 10.10 95.18 10.03L95.18 10.03Q94.66 11.38 94.06 12.66Q93.46 13.94 93.05 14.64L93.05 14.64L92.83 14.23Q93.98 12 94.78 9.67L94.78 9.67Q94.54 9.43 94.54 9.10L94.54 9.10Q94.54 8.66 94.72 8.28Q94.90 7.90 95.15 7.68Q95.40 7.46 95.54 7.46L95.54 7.46Q95.88 7.46 95.88 8.04L95.88 8.04Q95.88 8.14 95.76 8.47Q95.64 8.81 95.62 8.93L95.62 8.93Q95.62 9.17 95.82 9.37Q96.02 9.58 96.48 9.89L96.48 9.89Q97.22 10.42 97.64 10.93Q98.06 11.45 98.06 12.26L98.06 12.26Q98.06 12.79 97.90 13.31Q97.73 13.82 97.39 14.66L97.39 14.66Q96.86 15.82 96.86 16.32L96.86 16.32Q96.86 17.04 97.58 17.04L97.58 17.04Q98.30 17.04 99.13 16.46Q99.96 15.89 100.66 15.04Q101.35 14.18 101.66 13.46L101.66 13.46L101.98 13.70Q101.23 15.36 99.82 16.63Q98.40 17.90 96.96 17.90L96.96 17.90ZM102.58 18Q101.88 18 101.33 17.48Q100.78 16.97 100.78 15.98L100.78 15.98Q100.78 14.66 101.78 12.90Q102.79 11.14 104.30 9.89Q105.82 8.64 107.23 8.64L107.23 8.64Q108.29 8.64 108.29 9.38L108.29 9.38Q108.29 9.48 108.24 9.72L108.24 9.72Q108.00 9.36 107.33 9.36L107.33 9.36Q106.13 9.36 105.00 10.50Q103.87 11.64 103.16 13.18Q102.46 14.71 102.46 15.70L102.46 15.70Q102.46 16.22 102.68 16.54Q102.91 16.85 103.32 16.85L103.32 16.85Q103.97 16.85 104.90 16.02Q105.84 15.19 106.80 13.68Q107.76 12.17 108.50 10.25L108.50 10.25Q110.38 5.40 111.64 2.70Q112.90 0 113.76 0L113.76 0Q113.95 0 114.10 0.16Q114.24 0.31 114.24 0.55L114.24 0.55Q114.24 0.91 113.86 1.79Q113.47 2.66 112.61 4.49L112.61 4.49Q110.83 8.18 109.78 10.88Q108.72 13.58 108.72 15.60L108.72 15.60Q108.72 16.39 108.80 16.67Q108.89 16.94 109.27 16.94L109.27 16.94Q109.78 16.94 110.46 16.50Q111.14 16.06 111.82 15.25Q112.49 14.45 112.97 13.39L112.97 13.39L113.26 13.61Q112.80 14.81 112.01 15.79Q111.22 16.78 110.32 17.34Q109.42 17.90 108.60 17.90L108.60 17.90Q107.78 17.90 107.40 17.38Q107.02 16.85 107.02 16.10L107.02 16.10Q107.02 15.29 107.47 13.54L107.47 13.54Q106.25 15.55 104.94 16.78Q103.63 18 102.58 18L102.58 18ZM117.12 6.91Q116.69 6.91 116.41 6.71Q116.14 6.50 116.14 6.12L116.14 6.12Q116.14 5.64 116.71 5.26Q117.29 4.87 117.89 4.87L117.89 4.87Q118.68 4.87 118.68 5.62L118.68 5.62Q118.68 6.07 118.19 6.49Q117.70 6.91 117.12 6.91L117.12 6.91ZM114.24 17.90Q113.35 17.90 112.87 17.34Q112.39 16.78 112.39 15.89L112.39 15.89Q112.39 14.95 112.93 13.30Q113.47 11.64 114.28 10.39Q115.08 9.14 115.85 9.14L115.85 9.14Q116.06 9.14 116.22 9.29Q116.38 9.43 116.38 9.67L116.38 9.67Q116.38 10.01 115.61 11.28L115.61 11.28Q114.82 12.60 114.35 13.64Q113.88 14.69 113.88 15.62L113.88 15.62Q113.88 16.46 114.16 16.76Q114.43 17.06 115.06 17.06L115.06 17.06Q116.93 17.06 118.75 13.39L118.75 13.39L118.97 13.63Q118.30 15.65 116.99 16.78Q115.68 17.90 114.24 17.90L114.24 17.90ZM126.05 17.76Q125.23 17.76 124.80 17.34Q124.37 16.92 124.37 16.22L124.37 16.22Q124.37 15.91 124.48 15.49Q124.58 15.07 124.70 14.66L124.70 14.66Q124.85 14.23 124.96 13.75Q125.06 13.27 125.06 12.89L125.06 12.89Q125.06 11.71 124.10 11.71L124.10 11.71Q123.19 11.71 122.20 12.67Q121.20 13.63 120.42 14.81Q119.64 15.98 118.66 17.64L118.66 17.64Q118.25 17.64 117.91 17.51Q117.58 17.38 117.38 17.11L117.38 17.11Q117.38 16.99 117.70 16.25L117.70 16.25Q118.30 14.71 118.68 13.45Q119.06 12.19 119.09 11.21L119.09 11.21Q119.26 11.02 119.57 10.86Q119.88 10.70 120.19 10.70L120.19 10.70Q120.84 10.70 120.84 11.33L120.84 11.33Q120.84 11.69 120.62 12.59Q120.41 13.49 120.07 14.50L120.07 14.50Q121.22 12.72 122.52 11.50Q123.82 10.27 125.06 10.27L125.06 10.27Q125.95 10.27 126.40 10.91Q126.84 11.54 126.84 12.43L126.84 12.43Q126.84 12.96 126.71 13.44Q126.58 13.92 126.31 14.54L126.31 14.54Q126.10 15.07 125.98 15.46Q125.86 15.84 125.86 16.22L125.86 16.22Q125.86 17.14 126.58 17.14L126.58 17.14Q127.39 17.14 128.27 16.06Q129.14 14.98 129.94 13.39L129.94 13.39L130.20 13.70Q128.47 17.76 126.05 17.76L126.05 17.76ZM131.14 18.05Q130.15 18.05 129.70 17.45Q129.24 16.85 129.24 15.86L129.24 15.86Q129.24 14.88 129.65 13.80Q130.06 12.72 130.70 12Q131.35 11.28 132.00 11.28L132.00 11.28Q132.22 11.28 132.50 11.40L132.50 11.40Q132.22 11.64 131.81 12.46Q131.40 13.27 131.10 14.20Q130.80 15.12 130.80 15.70L130.80 15.70Q130.80 17.06 131.66 17.06L131.66 17.06Q132.17 17.06 132.86 16.54Q133.56 16.01 134.23 15.14L134.23 15.14Q133.56 14.59 133.19 13.70Q132.82 12.82 132.82 11.86L132.82 11.86Q132.82 10.61 133.45 9.72Q134.09 8.83 135.17 8.83L135.17 8.83Q136.08 8.83 136.45 9.32Q136.82 9.82 136.82 10.68L136.82 10.68Q136.82 11.59 136.38 12.73Q135.94 13.87 135.22 14.95L135.22 14.95Q135.65 15.19 136.13 15.19L136.13 15.19Q136.82 15.19 137.57 14.77Q138.31 14.35 138.70 13.46L138.70 13.46L138.98 13.70Q138.53 14.76 137.69 15.26Q136.85 15.77 135.96 15.77L135.96 15.77Q135.31 15.77 134.81 15.53L134.81 15.53Q133.94 16.66 132.97 17.35Q132.00 18.05 131.14 18.05L131.14 18.05ZM134.66 14.52Q135.29 13.58 135.67 12.61Q136.06 11.64 136.06 10.82L136.06 10.82Q136.06 10.15 135.85 9.82Q135.65 9.48 135.34 9.48L135.34 9.48Q135.00 9.48 134.65 9.80Q134.30 10.13 134.08 10.69Q133.85 11.26 133.85 11.93L133.85 11.93Q133.85 12.67 134.05 13.36Q134.26 14.04 134.66 14.52L134.66 14.52Z" transform="translate(0, 43)"></path></svg>